<?xml version="1.0" encoding="UTF-8"?>
<!-- Generator: Adobe Illustrator 16.0.4, SVG Export Plug-In . SVG Version: 6.00 Build 0)  -->
<!DOCTYPE svg PUBLIC "-//W3C//DTD SVG 1.1//EN" "http://www.w3.org/Graphics/SVG/1.1/DTD/svg11.dtd">
<svg version="1.1" id="Layer_1" xmlns="http://www.w3.org/2000/svg" xmlns:xlink="http://www.w3.org/1999/xlink" x="0px" y="0px" width="341.078px" height="80.287px" viewBox="0 0 341.078 80.287" enable-background="new 0 0 341.078 80.287" xml:space="preserve">
<path fill="#9D7B38" d="M264.608,43.271l-10.484,20.009c-2.461,4.231-3.891,7.581-7.703,7.581h-1.191v0.881h32.166V70.86h-1.986  c-8.973-0.177-6.67-5.995-0.316-17.894l4.766-9.52v-0.177H264.608z M284.067,7.836V7.748h14.535l29.068,55.531  c2.461,4.231,3.891,7.581,7.703,7.581h1.191v0.881h-32.166V70.86h1.984c9.453,0,6.672-5.995,0.318-17.894L284.067,7.836z   M245.467,9.159v0.881h-0.635c-7.148,0-9.848,4.76-9.848,11.459h-0.797c0-6.347-3.096-11.459-9.688-11.459h-1.906V9.159H245.467z   M150.161,43.271l10.483,20.009c2.463,4.231,3.893,7.581,7.705,7.581h1.191v0.881h-32.167V70.86h1.986  c8.975-0.177,6.67-5.995,0.316-17.894l-4.766-9.52v-0.177H150.161z M195.035,71.741V70.86h-1.748c-7.146,0-9.848-4.76-9.848-11.459  h-0.795c0,6.346-3.098,11.459-9.689,11.459H172.4v0.881H195.035z M188.839,9.159h-18.268v0.881h1.352  c5.639,0,7.941,5.465,8.576,11.283c0.557,0,49.243,45.218,53.849,50.418h0.795V52.526C235.143,51.909,188.839,9.159,188.839,9.159   M130.702,7.836V7.748h-14.533l-29.07,55.531c-2.461,4.231-3.891,7.581-7.703,7.581h-1.191v0.881h32.166V70.86h-1.984  c-9.453,0-6.672-5.995-0.318-17.894L130.702,7.836z M72.088,49.088c-0.557,7.14-5.561,21.772-16.043,21.772v0.881h16.281  l0.557-22.653H72.088z M31.583,57.462V25.818c0-7.493,0.557-15.867,8.736-15.867h2.303V9.07H6.565v0.881h1.191  c6.99,0,8.736,8.462,8.736,15.867v28.471c0,9.696-0.635,16.571-6.434,16.571H8.311v0.881h23.271V57.462z"/>
<script xmlns=""/></svg>