<?xml version="1.0" encoding="utf-8"?>
<!-- Generator: Adobe Illustrator 24.1.3, SVG Export Plug-In . SVG Version: 6.00 Build 0)  -->
<svg version="1.1" id="Layer_1" xmlns="http://www.w3.org/2000/svg" xmlns:xlink="http://www.w3.org/1999/xlink" x="0px" y="0px"
	 viewBox="0 0 200 200" style="enable-background:new 0 0 200 200;" xml:space="preserve">
<style type="text/css">
	.st0{fill:#FBB324;}
	.st1{fill:#FFFFFF;}
	.st2{fill:#FCFDFF;}
</style>
<g>
	<path class="st0" d="M99.3,143.3c-37.6,0-68.2-30.2-68.2-67.4c0-37.2,30.6-67.4,68.2-67.4s68.2,30.2,68.2,67.4
		C167.5,113,136.9,143.3,99.3,143.3 M99.3,12.8c-35.2,0-63.8,28.3-63.8,63c0,34.8,28.6,63,63.8,63c35.2,0,63.8-28.3,63.8-63
		C163.1,41.1,134.5,12.8,99.3,12.8"/>
	<path class="st1" d="M99.3,135.8c-33.5,0-60.7-26.9-60.7-60c0-33.1,27.2-60,60.7-60c33.5,0,60.7,26.9,60.7,60
		c0,28.4-20.4,53.1-48.4,58.8C107.5,135.4,103.4,135.8,99.3,135.8 M99.3,17c-32.8,0-59.5,26.4-59.5,58.8c0,32.4,26.7,58.8,59.5,58.8
		c4,0,8.1-0.4,12-1.2c27.5-5.6,47.5-29.8,47.5-57.6C158.8,43.4,132.1,17,99.3,17"/>
	<path class="st0" d="M115.2,9.6c4.1-0.8,8.4-1.2,12.7-1.2c37.6,0,68.2,30.2,68.2,67.4c0,37.2-30.6,67.4-68.2,67.4
		c-4.3,0-8.6-0.4-12.7-1.2l11.7-3.2c0.3,0,0.7,0,1,0c35.2,0,63.8-28.3,63.8-63c0-34.8-28.6-63-63.8-63L115.2,9.6z"/>
	<path class="st0" d="M137,134c0.9-0.1,1.9-0.3,2.8-0.5c27.5-5.6,47.5-29.8,47.5-57.6c0-29.4-21.9-53.8-50.3-58.1l-2.7-1.5
		c30.4,3.2,54.2,28.7,54.2,59.6c0,28.4-20.4,53.1-48.4,58.8c-1.9,0.4-3.8,0.7-5.8,0.9"/>
	<path class="st0" d="M71,12.8c-35.2,0-63.8,28.3-63.8,63c0,34.8,28.6,63,63.8,63c0.3,0,0.7,0,1,0l11.7,3.2
		c-4.1,0.8-8.4,1.2-12.7,1.2c-37.6,0-68.2-30.2-68.2-67.4C2.8,38.7,33.4,8.4,71,8.4c4.3,0,8.6,0.4,12.7,1.2L71,12.8z"/>
	<path class="st0" d="M64.6,135.5c-1.9-0.2-3.9-0.5-5.8-0.9c-28.1-5.7-48.4-30.4-48.4-58.8c0-30.9,23.8-56.4,54.2-59.6l-2.7,1.5
		c-28.5,4.4-50.3,28.8-50.3,58.1c0,27.8,20,52.1,47.5,57.6c0.9,0.2,1.9,0.4,2.8,0.5"/>
	<path class="st1" d="M99.3,113.2c-20.8,0-37.8-16.8-37.8-37.4c0-20.6,17-37.4,37.8-37.4c20.8,0,37.8,16.8,37.8,37.4
		C137.1,96.5,120.2,113.2,99.3,113.2 M99.3,39.6c-20.2,0-36.6,16.3-36.6,36.2c0,20,16.4,36.2,36.6,36.2c20.2,0,36.6-16.3,36.6-36.2
		C136,55.9,119.5,39.6,99.3,39.6"/>
	<path class="st1" d="M99.3,108.2c-18,0-32.7-14.5-32.7-32.3c0-17.8,14.7-32.3,32.7-32.3c18,0,32.7,14.5,32.7,32.3
		C132,93.7,117.3,108.2,99.3,108.2 M99.3,44.7c-17.4,0-31.5,14-31.5,31.2C67.8,93,81.9,107,99.3,107c17.4,0,31.5-14,31.5-31.2
		C130.9,58.7,116.7,44.7,99.3,44.7"/>
	<path class="st1" d="M99.3,102c-14.6,0-26.5-11.7-26.5-26.2c0-14.4,11.9-26.2,26.5-26.2c14.6,0,26.5,11.7,26.5,26.2
		C125.8,90.3,113.9,102,99.3,102 M99.3,50.8c-14,0-25.3,11.2-25.3,25c0,13.8,11.4,25,25.3,25c14,0,25.3-11.2,25.3-25
		C124.7,62,113.3,50.8,99.3,50.8"/>
	<path class="st2" d="M110.1,75.9c0,5.9-4.8,10.7-10.8,10.7c-6,0-10.8-4.8-10.8-10.7c0-5.9,4.8-10.7,10.8-10.7
		C105.3,65.1,110.1,69.9,110.1,75.9"/>
	<path class="st1" d="M18.7,166.6v-1L28.8,155H12.4v-1.4h18.4v0.5l-10.2,11.1c7,0,11.7,5.2,11.7,11.3c0,6.3-5.2,11.5-11.2,11.5
		c-6,0-10.9-5-11-11.2h1.4c0.2,5.3,4.5,9.7,9.6,9.7c5.2,0,9.6-4.5,9.6-9.9c0-5.3-4.2-9.9-10.1-9.9H18.7z"/>
	<polygon class="st1" points="48.6,153.7 70.8,153.7 70.8,155 50.5,155 50.5,187.6 48.6,187.6 	"/>
	<path class="st1" d="M87.9,153.3c9.7,0,17.5,7.8,17.5,17.3c0,9.6-7.8,17.3-17.5,17.3c-9.7,0-17.5-7.8-17.5-17.3
		C70.4,161.1,78.2,153.3,87.9,153.3 M87.9,186.5c8.7,0,15.8-7.2,15.8-15.8c0-8.6-7.1-15.8-15.8-15.8c-8.7,0-15.8,7.2-15.8,15.8
		C72.1,179.3,79.2,186.5,87.9,186.5"/>
	<polygon class="st1" points="136.7,187.6 136.7,171.3 112.6,171.3 112.6,187.6 110.7,187.6 110.7,153.7 112.6,153.7 112.6,170 
		136.7,170 136.7,153.7 138.6,153.7 138.6,187.6 	"/>
	<polygon class="st1" points="146.3,153.7 168.5,153.7 168.5,155 148.2,155 148.2,187.6 146.3,187.6 	"/>
	<path class="st1" d="M192.8,180.1h-22.3l-3.5,7.5h-2.7l16.4-34.6h1.9l16.4,34.6h-2.7L192.8,180.1z M192.6,178.8l-10.9-23.2
		l-11,23.2H192.6z"/>
	<polygon class="st2" points="66.4,129.9 99.5,77 97.5,75.9 64.5,128.7 	"/>
</g>
</svg>
