<?xml version="1.0" encoding="utf-8"?>
<!-- Generator: Adobe Illustrator 24.1.3, SVG Export Plug-In . SVG Version: 6.00 Build 0)  -->
<svg version="1.1" id="Layer_1" xmlns="http://www.w3.org/2000/svg" xmlns:xlink="http://www.w3.org/1999/xlink" x="0px" y="0px"
	 viewBox="0 0 200 200" style="enable-background:new 0 0 200 200;" xml:space="preserve">
<style type="text/css">
	.st0{fill:#2C144B;}
	.st1{fill:#fdd483;}
</style>
<g>
	<path class="st0" d="M99.7,142.5c-36.7,0-66.6-28-66.6-62.5c0-34.5,29.9-62.5,66.6-62.5s66.6,28,66.6,62.5
		C166.4,114.5,136.5,142.5,99.7,142.5 M99.7,21.6c-34.3,0-62.3,26.2-62.3,58.4s27.9,58.4,62.3,58.4c34.3,0,62.3-26.2,62.3-58.4
		S134.1,21.6,99.7,21.6"/>
	<path class="st0" d="M99.7,135.6c-32.7,0-59.3-25-59.3-55.6c0-30.7,26.6-55.6,59.3-55.6S159,49.3,159,80
		c0,26.3-19.9,49.2-47.3,54.5C107.8,135.2,103.8,135.6,99.7,135.6 M99.7,25.4c-32.1,0-58.1,24.5-58.1,54.6
		c0,30.1,26.1,54.6,58.1,54.6c3.9,0,7.9-0.4,11.7-1.1c26.9-5.2,46.4-27.6,46.4-53.4C157.9,49.9,131.8,25.4,99.7,25.4"/>
	<path class="st0" d="M115.2,18.6c4-0.7,8.2-1.1,12.4-1.1c36.7,0,66.6,28,66.6,62.5c0,34.5-29.9,62.5-66.6,62.5
		c-4.2,0-8.4-0.4-12.4-1.1l11.4-3c0.3,0,0.7,0,1,0c34.3,0,62.3-26.2,62.3-58.4c0-32.2-27.9-58.4-62.3-58.4L115.2,18.6z"/>
	<path class="st0" d="M136.6,133.9c0.9-0.1,1.8-0.3,2.8-0.5c26.9-5.2,46.4-27.6,46.4-53.4c0-27.2-21.4-49.9-49.2-53.9l-2.7-1.4
		c29.7,3,53,26.6,53,55.3c0,26.3-19.9,49.2-47.3,54.5c-1.9,0.4-3.7,0.6-5.6,0.8"/>
	<path class="st0" d="M72.1,21.6C37.8,21.6,9.8,47.8,9.8,80s27.9,58.4,62.3,58.4c0.3,0,0.7,0,1,0l11.4,3c-4,0.7-8.2,1.1-12.4,1.1
		c-36.7,0-66.6-28-66.6-62.5c0-34.5,29.9-62.5,66.6-62.5c4.2,0,8.4,0.4,12.4,1.1L72.1,21.6z"/>
	<path class="st0" d="M65.8,135.3c-1.9-0.2-3.8-0.5-5.6-0.8c-27.4-5.3-47.3-28.2-47.3-54.5c0-28.7,23.2-52.3,53-55.3l-2.7,1.4
		C35.3,30.1,14,52.8,14,80c0,25.8,19.5,48.3,46.4,53.4c0.9,0.2,1.8,0.3,2.8,0.5"/>
	<path class="st0" d="M99.7,114.5C79.5,114.5,63,99,63,80c0-19,16.5-34.5,36.7-34.5S136.4,61,136.4,80
		C136.4,99,120,114.5,99.7,114.5 M99.7,46.2c-19.9,0-36,15.2-36,33.8c0,18.6,16.2,33.8,36,33.8s36-15.2,36-33.8
		C135.7,61.4,119.6,46.2,99.7,46.2"/>
	<path class="st0" d="M99.7,109.7c-17.5,0-31.7-13.3-31.7-29.7s14.2-29.7,31.7-29.7s31.7,13.3,31.7,29.7S117.2,109.7,99.7,109.7
		 M99.7,50.8c-17.1,0-31.1,13.1-31.1,29.2c0,16.1,13.9,29.2,31.1,29.2s31.1-13.1,31.1-29.2C130.8,63.9,116.9,50.8,99.7,50.8"/>
	<path class="st0" d="M99.7,104c-14.1,0-25.6-10.8-25.6-24s11.5-24,25.6-24c14.1,0,25.6,10.8,25.6,24S113.8,104,99.7,104 M99.7,56.5
		C85.9,56.5,74.7,67,74.7,80s11.2,23.5,25.1,23.5c13.8,0,25.1-10.6,25.1-23.5S113.6,56.5,99.7,56.5"/>
	<path class="st1" d="M110.3,80c0,5.5-4.7,9.9-10.6,9.9c-5.8,0-10.6-4.4-10.6-9.9c0-5.5,4.7-9.9,10.6-9.9
		C105.6,70.1,110.3,74.5,110.3,80"/>
	<path class="st0" d="M20.6,164.5v-1.3l9.8-9.8H14.6V152h18v1.1l-10.2,10.1c6.9,0,11.7,4.7,11.7,10.3c0,5.7-5.2,10.4-11.2,10.4
		c-5.9,0-10.9-4.6-11-10.2h1.4c0.2,4.8,4.5,8.8,9.6,8.8c5.2,0,9.6-4.1,9.6-9c0-4.9-4.2-9.1-10.1-9.1H20.6z"/>
	<polygon class="st0" points="49.9,152.1 72.1,152.1 72.1,153.6 51.7,153.6 51.7,183.7 49.9,183.7 	"/>
	<path class="st0" d="M88.6,151.9c9.5,0,17.1,7.2,17.1,16.1S98,184,88.6,184c-9.5,0-17.1-7.2-17.1-16.1S79.1,151.9,88.6,151.9
		 M88.6,182.6c8.5,0,15.4-6.7,15.4-14.7c0-8-6.9-14.7-15.4-14.7c-8.5,0-15.4,6.7-15.4,14.7C73.2,175.9,80.1,182.6,88.6,182.6"/>
	<polygon class="st0" points="136.2,183.7 136.2,168.6 112.6,168.6 112.6,183.7 110.9,183.7 110.9,152.1 112.6,152.1 112.6,167.3 
		136.2,167.3 136.2,152.1 137.9,152.1 137.9,183.7 	"/>
	<polygon class="st0" points="145.4,152.1 167.6,152.1 167.6,153.6 147.1,153.6 147.1,183.7 145.4,183.7 	"/>
	<path class="st0" d="M191.5,176.5h-22.8l-3.6,7.2h-1.9l16-31.9h1.8l16,31.9h-1.9L191.5,176.5z M190.8,175.2l-10.7-21.5l-10.7,21.5
		H190.8z"/>
	<polygon class="st1" points="67.6,130.1 99.9,81.1 98,80 65.7,129 	"/>
</g>
</svg>
