<svg width="6" height="6" xmlns="http://www.w3.org/2000/svg"><path fill="#43c1f1" d="M5.969 2.773a1.392 1.392 0 0 0-.17-.323 5.811 5.811 0 0 0-.881-.953A6.136 6.136 0 0 0 2.22.138 5.14 5.14 0 0 0 1.26 0h-.086a.644.644 0 0 0-.542.295.954.954 0 0 0-.082.137C.482.594.411.755.353.92a5.932 5.932 0 0 0-.347 1.715 6.098 6.098 0 0 0 .311 2.21c.088.262.18.52.315.762.104.187.24.342.464.378.109.017.222.02.332.008a5.997 5.997 0 0 0 1.092-.22 6.13 6.13 0 0 0 3.11-2.1c.117-.147.233-.296.31-.47a.55.55 0 0 0 .029-.43" fill-rule="evenodd"/><script xmlns=""/></svg>